<?xml version="1.0" standalone="no"?>
<!DOCTYPE svg PUBLIC "-//W3C//DTD SVG 20010904//EN"
 "http://www.w3.org/TR/2001/REC-SVG-20010904/DTD/svg10.dtd">
<svg version="1.0" xmlns="http://www.w3.org/2000/svg"
 width="1024.000000pt" height="1024.000000pt" viewBox="0 0 1024.000000 1024.000000"
 preserveAspectRatio="xMidYMid meet">

<g transform="translate(0.000000,1024.000000) scale(0.100000,-0.100000)"
fill="#000000" stroke="none">
<path d="M1970 5280 l0 -1760 325 0 325 0 0 560 0 559 753 3 752 3 85 28 c444
148 759 505 836 948 24 142 15 391 -19 522 -30 113 -96 257 -164 360 -61 93
-187 223 -286 298 -142 107 -361 200 -540 229 -39 6 -444 10 -1064 10 l-1003
0 0 -1760z m2001 1100 c130 -24 276 -128 358 -254 112 -172 119 -358 20 -556
-57 -113 -122 -181 -224 -231 -75 -37 -92 -42 -201 -51 -73 -6 -325 -8 -654
-4 -294 3 -559 6 -587 6 l-53 0 0 550 0 550 644 0 c386 0 665 -4 697 -10z"/>
<path d="M7616 7023 c-23 -81 -388 -1294 -426 -1418 -111 -361 -298 -981 -302
-1000 l-5 -20 -8 20 c-27 66 -352 919 -449 1175 l-114 305 -279 3 -279 2 -91
-227 c-49 -126 -188 -475 -308 -778 -120 -302 -221 -553 -224 -557 -3 -4 -39
66 -80 155 -41 89 -76 163 -77 165 -1 2 -38 -33 -81 -79 -94 -98 -209 -189
-321 -254 -59 -34 -82 -53 -79 -64 2 -9 56 -160 119 -336 64 -176 137 -382
164 -457 l48 -138 301 0 300 0 74 193 c268 703 422 1115 517 1386 3 8 22 -34
43 -95 87 -248 181 -506 359 -979 l187 -500 305 -3 305 -2 144 462 c79 255
188 605 241 778 54 173 175 565 270 870 222 717 419 1359 426 1388 l6 22 -340
0 c-316 0 -341 -1 -346 -17z"/>
</g>
</svg>
